<?xml version="1.0" encoding="UTF-8"?>
<svg id="Layer_1" xmlns="http://www.w3.org/2000/svg" version="1.1" viewBox="0 0 2314.35 805.39">
  <!-- Generator: Adobe Illustrator 29.4.0, SVG Export Plug-In . SVG Version: 2.1.0 Build 152)  -->
  <defs>
    <style>
      .st0 {
        fill: #2f9e44;
      }

      .st0, .st1, .st2 {
        font-size: 32px;
      }

      .st0, .st1, .st2, .st3 {
        font-family: ArialMT, Arial;
      }

      .st4 {
        stroke: #f08c00;
        stroke-width: 8px;
      }

      .st4, .st5, .st6, .st7, .st8, .st9, .st10 {
        fill: none;
        stroke-linecap: round;
        stroke-miterlimit: 8;
      }

      .st5 {
        stroke: #2f9e44;
      }

      .st5, .st6, .st7 {
        stroke-width: 4px;
      }

      .st5, .st7, .st9, .st10 {
        stroke-opacity: .4;
      }

      .st6 {
        stroke: #1e1e1e;
      }

      .st7 {
        stroke: #1971c2;
      }

      .st11, .st2, .st3 {
        isolation: isolate;
      }

      .st1 {
        fill: #1971c2;
      }

      .st8 {
        stroke: #000;
      }

      .st8, .st9, .st10 {
        stroke-width: 2px;
      }

      .st2, .st3 {
        fill: #1e1e1e;
      }

      .st9 {
        stroke: #a5d8ff;
      }

      .st10 {
        stroke: #b2f2bb;
      }

      .st3 {
        font-size: 40px;
      }
    </style>
  </defs>
  <g>
    <path class="st10" d="M421.09,95.78h0M421.09,95.78h0M408.54,132.95c21.7-18.59,39.18-37.27,45.09-43.44M408.54,132.95c9.28-9.44,21.18-18.67,45.09-43.44M408.86,157.7c31.74-33.1,57.12-57.87,77.3-74.48M408.86,157.7c15.49-13.92,32.7-28.49,77.3-74.48M407.59,183.99c16.89-20.87,43.5-42.19,104.67-100.84M407.59,183.99c36.16-33.28,69.34-64.51,104.67-100.84M407.9,208.75c37.95-44.61,85.18-79.38,130.44-125.68M407.9,208.75c52.16-47.43,100.66-97.47,130.44-125.68M408.22,233.52c64.02-56.02,117.09-113.57,156.21-150.51M408.22,233.52c55.92-57.09,114.21-112.35,156.21-150.51M408.57,258.27c61.1-56.95,120.03-117.95,181.96-175.35M408.57,258.27c39.57-40.4,82.28-81.66,181.96-175.35M407.27,284.57c67.63-64.49,141.31-133.84,209.36-201.7M407.27,284.57c73.79-70.37,140.01-135.89,209.36-201.7M407.61,309.32c49.02-52.63,105.72-102.3,235.11-226.52M407.61,309.32c86.48-85.63,173.47-165.99,235.11-226.52M407.93,334.07c98.82-92.08,195.95-189.22,260.88-251.35M407.93,334.07c52.97-53.17,108.42-106.52,260.88-251.35M408.25,358.83c95.51-86.06,182.13-178.06,286.65-276.17M408.25,358.83c76.81-74.98,152.61-147.28,286.65-276.17M406.97,385.14c87.24-84.21,181.4-171.42,314.02-302.56M406.97,385.14c90.5-85.36,180.12-173.68,314.02-302.56M407.29,409.89c111.02-109.85,222.59-212.15,339.8-327.38M407.29,409.89c110.46-108.16,218.27-214.78,339.8-327.38M407.63,434.65c130.34-125.47,261.37-250.96,363.95-350.65M407.63,434.65c70.4-71.69,143.13-140.23,363.95-350.65M407.95,459.4c83.29-87.54,176.15-168.4,389.72-375.49M407.95,459.4c151.13-147.65,301.48-293.83,389.72-375.49M406.68,485.71c143.67-136.72,291.49-282.52,417.09-401.86M406.68,485.71c127.74-120.87,253.69-241.69,417.09-401.86M407,510.47c94.99-89.18,185.55-182.27,442.87-426.7M407,510.47c97.38-91.88,191.83-185.03,442.87-426.7M407.32,535.22c169.89-166.98,346.01-335.01,468.64-451.51M407.32,535.22c146.05-145.1,294.8-285.03,468.64-451.51M410.87,556.87c181.28-176.99,363.58-350.34,491.17-473.22M410.87,556.87c106.16-103.35,210.83-201.5,491.17-473.22M409.57,583.18c183.12-172.8,368.76-345.22,518.57-499.62M409.57,583.18c117.01-113.59,238.27-229.6,518.57-499.62M421.18,597.08c191.81-183.3,384.57-372.2,533.05-513.58M421.18,597.08c168.02-155.96,331.82-312.56,533.05-513.58M434.39,609.42c198.63-200.02,405.46-395.7,549.15-529.1M434.39,609.42c136.53-133.24,273.4-264.53,549.15-529.1M452.43,617.11c197.7-195.19,401.19-384.66,553.99-533.75M452.43,617.11c146.44-141.05,295.24-286.1,553.99-533.75M475.31,620.13c194.19-188.42,385.58-375.73,550.75-530.64M475.31,620.13c124.6-123.46,254.45-245.14,550.75-530.64M493.35,627.82c173.79-167.37,348.36-335.19,550.75-530.64M493.35,627.82c213.82-207.05,428.87-414.51,550.75-530.64M519.44,627.76c199.12-191.79,391.07-379.25,534.65-515.14M519.44,627.76c125.43-119.49,249.69-240.91,534.65-515.14M545.54,627.67c147.03-140.66,290.7-285.38,521.76-502.7M545.54,627.67c110.34-108.06,221.14-216.18,521.76-502.7M571.63,627.61c154.1-153.64,311.86-302.26,496.01-477.89M571.63,627.61c198.14-187.17,392.74-373.55,496.01-477.89M597.72,627.53c138.32-128.41,279.76-261.18,470.24-453.05M597.72,627.53c181.32-175.51,368.2-353.98,470.24-453.05M623.82,627.47c110.58-102.65,216.82-206.02,442.87-426.7M623.82,627.47c105.82-98.15,204.47-195.49,442.87-426.7M649.91,627.39c118.73-113.18,243.67-230.46,417.09-401.86M649.91,627.39c96.25-95.25,193.77-189.24,417.09-401.86M676,627.32c101.4-98.44,199.19-196.71,391.32-377.03M676,627.32c130.51-124.85,258.79-250.28,391.32-377.03M702.09,627.26c147.77-139.39,287.81-272.71,365.57-352.21M702.09,627.26c127.96-128.43,259.53-253.61,365.57-352.21M728.19,627.18c129.83-122.1,254.62-243.66,339.8-327.38M728.19,627.18c104.91-98.89,207.17-196.09,339.8-327.38M754.28,627.12c69.69-62.11,139.45-130.03,312.43-301.02M754.28,627.12c72.51-72.8,144.55-145.89,312.43-301.02M780.37,627.04c77.71-80.49,161.74-154.19,286.65-276.19M780.37,627.04c110.63-110.85,225.43-216.79,286.65-276.19M806.46,626.97c100.62-97.26,192.74-187.76,260.88-251.37M806.46,626.97c64.63-68.56,134.71-134.02,260.88-251.37M832.56,626.89c88.12-91.61,182.77-174.01,235.13-226.52M832.56,626.89c58.81-56.95,119.57-115.56,235.13-226.52M858.65,626.83c80.32-76.48,149.61-144.69,209.36-201.7M858.65,626.83c56.43-52.38,112.57-103.82,209.36-201.7M884.74,626.75c67.36-65.71,131.99-126.95,181.99-175.33M884.74,626.75c39.52-40.95,81.86-79.99,181.99-175.33M910.84,626.69c39.32-43.52,87.41-83.04,156.21-150.51M910.84,626.69c61.49-57.44,120.99-119.47,156.21-150.51M936.93,626.6c54.98-54.52,98.41-98.52,130.44-125.68M936.93,626.6c30.93-27.8,62.23-58.94,130.44-125.68M963.02,626.54c37.16-30.26,72.24-63.28,104.69-100.86M963.02,626.54c29.36-26.87,53.54-51.56,104.69-100.86M990.73,624.92c25.31-19.92,48.97-43.75,72.46-69.82M990.73,624.92c16.59-19.12,38.46-34.93,72.46-69.82"/>
    <path class="st5" d="M480.34,79c174.72-2.34,352.9-4.4,501.07,0M480.34,79c147.08,2.71,293.16,2.47,501.07,0M981.41,79c49.14,2.61,79.92,24.12,78.55,65.79M981.41,79c50.37-4.28,83.07,25.1,78.55,65.79M1059.96,144.79c-1.64,100.53,1.33,193.19,0,406.82M1059.96,144.79c-3.88,113.67-2.04,227.01,0,406.82M1059.96,551.61c-4.71,47.7-29.01,68.54-78.55,65.79M1059.96,551.61c-4.91,47.1-25.7,64.49-78.55,65.79M981.41,617.39c-167.43,2.75-330.25-2.43-501.07,0M981.41,617.39c-121.41-2.71-240.38-3.68-501.07,0M480.34,617.39c-54.44-2.1-76.29-21.28-78.55-65.79M480.34,617.39c-47.87-.93-80.41-19.55-78.55-65.79M401.79,551.61c6.92-80.26.34-164.26,0-406.82M401.79,551.61c2.75-147.18,1.52-292.8,0-406.82M401.79,144.79c1.4-43.34,25.82-66.94,78.55-65.79M401.79,144.79c-.47-48.31,26.66-68.4,78.55-65.79"/>
  </g>
  <g>
    <path class="st9" d="M1258.9,94.97h0M1258.9,94.97h0M1243.25,136.29c22.74-13.69,39.35-35.52,55.93-55.72M1243.25,136.29c20.09-23.81,43.05-45.13,55.93-55.72M1241.98,163.26c23.57-20.92,45.05-45.55,86.27-85.94M1241.98,163.26c29.03-29.46,55.54-55.26,86.27-85.94M1242.3,188.65c33.97-35.85,61.53-66.92,111.84-111.42M1242.3,188.65c22.45-22.71,46.31-48.17,111.84-111.42M1242.64,214.05c52.06-46.76,96.47-91.3,137.38-136.88M1242.64,214.05c32.65-28.24,60-58.27,137.38-136.88M1242.95,239.46c55.15-51.17,111.79-113.47,161.34-160.77M1242.95,239.46c62.14-58.38,122.48-119.18,161.34-160.77M1241.69,266.43c49.84-49.63,100.57-103.13,188.49-187.81M1241.69,266.43c56.15-59.28,118.34-115.11,188.49-187.81M1242,291.83c58.12-58.21,122.02-120.83,214.06-213.29M1242,291.83c53.67-53.21,103.66-105.7,214.06-213.29M1242.32,317.22c94.72-95.79,190.47-188.93,239.63-238.74M1242.32,317.22c55.69-53.23,110.99-107.22,239.63-238.74M1242.66,342.61c83.01-74.34,154.31-157.71,265.17-264.22M1242.66,342.61c68.93-69.75,139.45-136.73,265.17-264.22M1241.37,369.61c74.71-71.5,143.98-145.61,292.35-291.28M1241.37,369.61c97.25-98.2,196.94-195.57,292.35-291.28M1241.71,395c107.46-106.38,208.31-210.04,317.89-316.75M1241.71,395c72.32-75.33,145.47-148.29,317.89-316.75M1242.03,420.39c94.09-97.77,191.93-195.21,343.46-342.21M1242.03,420.39c87.12-82.67,172.3-166.25,343.46-342.21M1242.35,445.79c145.52-138.94,282.92-284.32,369.02-367.69M1242.35,445.79c95.21-97.1,194.36-189.92,369.02-367.69M1241.08,472.78c132.1-129.41,259.33-252.01,396.17-394.75M1241.08,472.78c109.36-107.12,216.11-213.14,396.17-394.75M1241.4,498.17c168.82-166.49,333.79-337.8,421.74-420.22M1241.4,498.17c90.83-93.56,186.28-189.83,421.74-420.22M1241.74,523.57c124.55-121.75,247.86-238.59,447.29-445.68M1241.74,523.57c164.8-167.88,332.13-334.37,447.29-445.68M1242.05,548.96c158.84-154.11,320.5-316.9,472.85-471.14M1242.05,548.96c143.11-143.73,286.53-284.47,472.85-471.14M1242.37,574.35c126.28-122.77,248.64-247.35,498.42-496.61M1242.37,574.35c133.02-131.1,263.61-259.14,498.42-496.61M1247.48,594.98c172.89-164.99,333.28-333.99,519.19-517.3M1247.48,594.98c123.04-123.93,244.01-244.9,519.19-517.3M1257.39,610.82c132.15-131.77,264.81-267.85,535.16-533.23M1257.39,610.82c133.61-133.82,269.02-271.31,535.16-533.23M1273.71,620.29c172.67-166.4,343.16-334.05,544.73-542.76M1273.71,620.29c141.77-142.65,282.39-280.96,544.73-542.76M1293.19,626.59c148.97-147.63,297.68-296.63,547.95-545.96M1293.19,626.59c121.9-120.15,240.09-238.62,547.95-545.96M1315.88,629.69c108.28-109.9,227.21-223.37,546.34-544.36M1315.88,629.69c210.48-210.65,421.18-419.97,546.34-544.36M1340.18,631.21c111.99-109.56,217.15-221.43,538.35-536.39M1340.18,631.21c132.32-126.54,264.83-258.5,538.35-536.39M1366.07,631.15c191.46-185.62,377.13-373.89,523.96-522.09M1366.07,631.15c168.89-164.36,336.2-331.05,523.96-522.09M1391.95,631.06c160.27-158.18,324.73-315.7,504.8-502.96M1391.95,631.06c175.56-179.2,355.75-356.09,504.8-502.96M1417.84,631c119.44-118,241.77-238.49,482.45-480.69M1417.84,631c164.39-162.44,326.31-326.14,482.45-480.69M1443.72,630.94c182.89-178.13,355.88-357.88,456.88-455.23M1443.72,630.94c99.15-98.43,199.01-201.37,456.88-455.23M1469.6,630.85c93.02-92.33,183.36-185.19,431.31-429.76M1469.6,630.85c173.2-173.34,342.68-341.81,431.31-429.76M1495.49,630.79c152.09-152.31,301.38-305.58,405.77-404.3M1495.49,630.79c89.39-93.05,180.87-182.64,405.77-404.3M1521.37,630.71c119.27-120.53,236.29-235.03,380.2-378.82M1521.37,630.71c96.3-94.13,196.14-192.22,380.2-378.82M1547.26,630.64c121.75-113.53,236.54-235.14,353.05-351.76M1547.26,630.64c143.2-139.53,283.65-280.56,353.05-351.76M1573.14,630.56c91.53-83.43,176.51-174.99,327.48-326.29M1573.14,630.56c111.11-109.96,220.56-219.91,327.48-326.29M1599.02,630.49c100.01-100.5,189.95-193.78,301.92-300.83M1599.02,630.49c86.49-91.19,177.76-177.58,301.92-300.83M1624.91,630.41c88.15-90.67,182.07-178.3,276.37-275.35M1624.91,630.41c72.22-69.13,142.96-139.53,276.37-275.35M1650.79,630.35c70.35-63.17,127.11-130.7,250.81-249.9M1650.79,630.35c79.6-75.74,157.76-150.58,250.81-249.9M1676.68,630.26c43.9-40.94,96.09-86.72,223.65-222.82M1676.68,630.26c70.08-69.47,138.09-136.16,223.65-222.82M1702.56,630.2c59.32-54.35,112.59-114.27,198.09-197.36M1702.56,630.2c74.93-70.78,143.01-143.08,198.09-197.36M1728.45,630.14c54.62-53.78,111.77-113.02,172.52-171.91M1728.45,630.14c61.48-63.17,125.87-123.44,172.52-171.91M1754.33,630.05c37.89-34.08,73.07-72.07,146.95-146.43M1754.33,630.05c33.09-28.77,64.8-62.72,146.95-146.43M1780.21,629.99c39.03-39.92,88.61-83.88,121.41-120.97M1780.21,629.99c48.14-46.25,91.7-89.74,121.41-120.97M1806.1,629.9c26.18-28.49,53.79-58.99,94.26-93.91M1806.1,629.9c33.34-34.17,62.9-67.85,94.26-93.91M1833.56,628.24c23.33-22.12,50.43-49.44,67.11-66.84M1833.56,628.24c22.6-21.89,38.96-41.97,67.11-66.84M1864.25,623.39c5.58-8.73,10.88-13.98,30.36-30.24M1864.25,623.39c11.27-7.17,19.19-17.65,30.36-30.24"/>
    <path class="st7" d="M1317.68,77.76c147.63-1.69,295.1-1.9,503.97,0M1317.68,77.76c106.65,3.44,217.13,2.81,503.97,0M1821.66,77.76c51.82,2.78,75.39,24.74,77.92,67.49M1821.66,77.76c48.29,3.08,79.48,25.08,77.92,67.49M1899.58,145.25c-1.07,108.05-3.31,224.65,0,417.33M1899.58,145.25c.41,101.93.46,203.99,0,417.33M1899.58,562.58c.44,45.13-21.89,67.07-77.92,67.49M1899.58,562.58c-5.36,49.52-29.22,70.76-77.92,67.49M1821.66,630.07c-108.48,1.52-215.06,1.56-503.97,0M1821.66,630.07c-141.4,1.1-278.44.76-503.97,0M1317.68,630.07c-55.59.61-79.8-24.06-77.92-67.49M1317.68,630.07c-54.3-2.47-75.34-21.72-77.92-67.49M1239.76,562.58c3.38-162.46-2.05-320.4,0-417.33M1239.76,562.58c-2.19-157.35-4.19-319.03,0-417.33M1239.76,145.25c4.77-45.32,28.27-64.96,77.92-67.49M1239.76,145.25c1.58-44.37,25.57-68.84,77.92-67.49"/>
  </g>
  <g class="st11">
    <text class="st1" transform="translate(1545.37 432.7)"><tspan x="0" y="0">ISIS</tspan></text>
  </g>
  <g class="st11">
    <text class="st0" transform="translate(675.08 423.99)"><tspan x="0" y="0">OSPF</tspan></text>
  </g>
  <path class="st8" d="M144.1,300.58c12.82,1.58,27.62,11.46,35.86,22.3,8.26,10.86,13.98,29.18,13.6,42.76-.36,13.6-6.48,28.54-15.8,38.82-9.34,10.26-27.08,20.9-40.18,22.8-13.1,1.9-27.44-4.36-38.4-11.42-10.94-7.04-22.66-18.44-27.26-30.88-4.6-12.44-5.18-30.62-.34-43.76,4.84-13.12,16.56-28.38,29.36-35,12.8-6.62,38.66-4.78,47.4-4.7,8.74.08,5.26,3.62,5.04,5.2M125.6,302.44c12.6-1.56,28.72,5.1,39.62,12.8,10.9,7.7,22.28,20.6,25.82,33.36,3.54,12.78,1.32,31.22-4.64,43.24-5.94,12.02-18.88,23.32-31.1,28.88-12.2,5.56-28.76,8.72-42.12,4.54-13.34-4.2-30.62-17.62-38-29.66-7.38-12.04-8.08-29.58-6.28-42.58,1.8-13.02,7.54-26.54,17.08-35.48,9.54-8.96,33.5-15.34,40.2-18.24,6.68-2.9-.54-.46-.06.84"/>
  <g>
    <path class="st8" d="M191.1,362.1c-8.8.42-44.94,2.42-54.04,2.88M190,360.92c-8.88.12-44.74,2.14-53.82,2.5"/>
    <path class="st8" d="M160.9,353.06c-6.28,2.42-10.6,4.16-24.72,10.36M160.9,353.06c-8.58,4.08-17.74,6.78-24.72,10.36"/>
    <path class="st8" d="M161.78,371.36c-6.48-1.82-11-4.32-25.6-7.94M161.78,371.36c-8.84-2.36-18.3-6.14-25.6-7.94"/>
  </g>
  <g>
    <path class="st8" d="M68.01,364.13c8.4.26,42.42.28,50.86.36M66.67,363.55c8.72-.02,45.32-.56,54.38-.68"/>
    <path class="st8" d="M97.03,371.99c9.04-3.78,17.06-7.06,24.02-9.12M97.03,371.99c8.48-3.96,17.96-6.26,24.02-9.12"/>
    <path class="st8" d="M96.77,354.41c9.1,2.22,17.2,4.92,24.28,8.46M96.77,354.41c8.62,2.44,18.18,6.52,24.28,8.46"/>
  </g>
  <g>
    <path class="st8" d="M127.47,361.81c.18-9.7,1.16-48.44,1.6-58.14M129.19,361.17c.52-10.1,1.92-49.16,1.98-59.08"/>
    <path class="st8" d="M140.49,329.71c-2.08-9.2-4.7-16.04-9.32-27.62M140.49,329.71c-2.66-9.3-6.96-19.4-9.32-27.62"/>
    <path class="st8" d="M120.57,329.25c3.84-9,7.14-15.72,10.6-27.16M120.57,329.25c4.36-9.06,7.1-18.98,10.6-27.16"/>
  </g>
  <g>
    <path class="st8" d="M126.46,364.54c.58,10.06,3.14,50.52,3.64,60.32M128.1,363.94c.5,9.7,1.22,49.28,1.3,59.28"/>
    <path class="st8" d="M118.66,394.96c3.7,7.46,6.2,13.52,10.74,28.26M118.66,394.96c1.92,6.04,5.26,11.4,10.74,28.26"/>
    <path class="st8" d="M139.34,394.66c-1.44,7.48-4.06,13.62-9.94,28.56M139.34,394.66c-2.42,6.2-3.4,11.6-9.94,28.56"/>
  </g>
  <path class="st8" d="M479.3,86.16c12.66-3.02,29.74,3.2,40.86,10.3,11.1,7.1,21.28,20.18,25.8,32.28,4.5,12.1,5.68,28.08,1.28,40.32-4.42,12.24-16.12,26.02-27.74,33.1-11.64,7.08-29.04,11.18-42.06,9.42-13-1.76-27.52-9.32-35.98-20-8.48-10.66-15.12-30.08-14.84-44.06.28-13.96,5.5-29.28,16.52-39.76,11.02-10.48,39.16-20.12,49.6-23.1,10.44-3,13.38,3.72,13.04,5.18M486.7,88.18c11.9-1.68,25.92,1.54,36.36,8.96,10.42,7.4,23.1,22,26.22,35.54,3.14,13.52-1.2,33.36-7.42,45.6-6.2,12.26-17.82,22.94-29.86,27.9-12.06,4.96-30.18,5.58-42.48,1.92-12.28-3.66-24.62-12.74-31.26-23.88-6.64-11.16-9.8-29.82-8.6-43.04,1.2-13.22,6.98-26.9,15.8-36.34,8.84-9.42,30.92-17.78,37.18-20.24,6.26-2.46-.52,4.4.42,5.5"/>
  <g>
    <path class="st8" d="M548.78,147.54c-8.84.32-43.34,2.96-52.32,3.44M550.58,149.42c-8.94-.04-45.64-.38-54.52.02"/>
    <path class="st8" d="M521.12,139.94c-9.4,4.14-15.52,5.4-25.06,9.5M521.12,139.94c-7.66,3.02-16.64,5.88-25.06,9.5"/>
    <path class="st8" d="M521.36,158.26c-9.54-1.86-15.72-6.62-25.3-8.82M521.36,158.26c-7.82-2.86-16.88-5.88-25.3-8.82"/>
  </g>
  <g>
    <path class="st8" d="M427.44,150.15c8.52.28,41.3.14,49.88-.02M426.56,149.57c8.92.04,44.2-1.34,52.9-1.24"/>
    <path class="st8" d="M455.46,157.53c7.26-3.28,13.02-3.86,24-9.2M455.46,157.53c5.3-2.4,11.2-4.76,24-9.2"/>
    <path class="st8" d="M455.16,139.95c7.26,1.38,13.1,5.46,24.3,8.38M455.16,139.95c5.42,1.92,11.4,3.88,24.3,8.38"/>
  </g>
  <g>
    <path class="st8" d="M485.92,147.47c.3-9.94,2.84-49.36,3.34-59.1M487.6,146.63c.16-9.86,1.14-47.78,1.28-57.18"/>
    <path class="st8" d="M498.26,117.05c-3.34-9.24-8.02-20.24-9.38-27.6M498.26,117.05c-3.36-8.72-5.56-16.88-9.38-27.6"/>
    <path class="st8" d="M478.34,116.63c4.22-9.04,7.12-19.86,10.54-27.18M478.34,116.63c2.72-8.56,6.64-16.6,10.54-27.18"/>
  </g>
  <g>
    <path class="st8" d="M486.65,149.24c.62,10.04,2.1,50.96,2.22,61.1M485.81,151.3c.6,10.22,1.88,50.5,2.5,60.48"/>
    <path class="st8" d="M476.69,183.84c2.02,7.5,5.74,12.16,11.62,27.94M476.69,183.84c3.2,7.86,7,15.56,11.62,27.94"/>
    <path class="st8" d="M497.37,182.92c-3,7.8-4.26,12.68-9.06,28.86M497.37,182.92c-2.6,8.06-4.56,16.02-9.06,28.86"/>
  </g>
  <path class="st8" d="M446.12,488.32c11.22-5.54,30.14-5.28,43.04-2.1,12.9,3.2,26.5,10.64,34.38,21.26,7.88,10.62,13.84,28.96,12.9,42.42-.96,13.48-9.08,28.68-18.6,38.42-9.5,9.72-24.92,18.44-38.48,19.96-13.54,1.54-31.72-3.12-42.84-10.82-11.12-7.7-20.48-22.36-23.86-35.38-3.38-13.02-4-29.48,3.6-42.76,7.58-13.28,33.54-31,41.94-36.9,8.38-5.92,8.6.34,8.4,1.44M476.12,480.98c13.06.42,31.2,10.12,41.32,19.68,10.14,9.58,18.52,24.14,19.46,37.74.94,13.62-5.46,32.92-13.8,43.88-8.34,10.96-23.22,18.02-36.24,21.84-13.04,3.82-30.72,6.58-41.94,1.08-11.22-5.5-20.44-21.82-25.44-34.08-4.98-12.24-7.32-26.18-4.52-39.42,2.82-13.22,10.5-31.7,21.4-39.94,10.88-8.24,36.9-8.46,43.96-9.48,7.06-1.04-1.18,2.14-1.62,3.3"/>
  <g>
    <path class="st8" d="M532.2,544.32c-9.18.2-44.78,1.22-53.54,1.54M533.72,543.24c-8.9.36-43.96,3.12-53.06,3.82"/>
    <path class="st8" d="M505.06,535.98c-8.88,2.66-17.66,7.82-24.4,11.08M505.06,535.98c-8,3.98-15.14,7.16-24.4,11.08"/>
    <path class="st8" d="M506.46,554.26c-9.36-3.78-18.66-5.06-25.8-7.2M506.46,554.26c-8.5-1.58-16.06-3.94-25.8-7.2"/>
  </g>
  <g>
    <path class="st8" d="M409.64,545.03c8.74.12,43.54.78,52.4.92M411.16,543.87c8.68.34,41.5,2.98,50.08,3.48"/>
    <path class="st8" d="M436.54,554.43c4.82-1.3,10.58-1.84,24.7-7.08M436.54,554.43c6.82-1.74,13.82-3.78,24.7-7.08"/>
    <path class="st8" d="M437.76,536.89c4.56,2.46,10.06,5.64,23.48,10.46M437.76,536.89c6.4,3.36,13.02,6.42,23.48,10.46"/>
  </g>
  <g>
    <path class="st8" d="M470.66,543.27c.6-9.66,2.46-48.86,2.56-58.4M469.38,542.33c.62-9.46,2.8-46.46,3.46-56.12"/>
    <path class="st8" d="M481.06,514.17c-1.68-4.8-3.64-13.44-8.22-27.96M481.06,514.17c-3.8-10.48-6.34-22.18-8.22-27.96"/>
    <path class="st8" d="M461.16,512.91c2.62-4.54,4.94-12.92,11.68-26.7M461.16,512.91c4.04-10.04,9.32-21.26,11.68-26.7"/>
  </g>
  <g>
    <path class="st8" d="M470.61,545.74c.24,10.24.46,51.36.64,61.56M469.75,544.72c.56,9.96,3.28,51.1,3.42,61.18"/>
    <path class="st8" d="M461.59,577.96c3.44,7.14,8.58,16.34,11.58,27.94M461.59,577.96c4.18,10.02,8.62,20.4,11.58,27.94"/>
    <path class="st8" d="M482.25,577.06c-2.94,7.5-4.2,16.98-9.08,28.84M482.25,577.06c-3.4,10.42-6.56,21.14-9.08,28.84"/>
  </g>
  <path class="st8" d="M968.5,89.12c11.56-4.02,28.5-2.4,40.42,3.06,11.94,5.44,25.18,17.54,31.14,29.64,5.94,12.1,7.44,30.28,4.6,42.98-2.86,12.68-10.94,25.22-21.74,33.14-10.8,7.92-29.3,15.06-43.02,14.34s-29.9-9.26-39.3-18.68c-9.4-9.42-15.7-24.52-17.08-37.82-1.38-13.3.3-30.68,8.82-41.98,8.52-11.32,33.56-21.74,42.28-25.84,8.7-4.1,9.76.46,10,1.24M997.78,90.72c13.32,2.46,31.44,9.46,39.96,20.34,8.52,10.9,12.62,31.66,11.14,44.96-1.48,13.32-10.8,25.64-20,34.94-9.18,9.3-22.14,18.82-35.08,20.84-12.96,2.04-31.3-1.16-42.6-8.68-11.3-7.52-21.4-23.02-25.24-36.46-3.86-13.44-3.12-31.36,2.18-44.2,5.32-12.82,17.6-26.8,29.64-32.76,12.06-5.96,35.22-2.98,42.72-3.04,7.5-.04,2.56,1.18,2.3,2.78"/>
  <g>
    <path class="st8" d="M1044.52,149.28c-8.9.24-45.08,1.6-53.88,1.72M1046.2,148.7c-8.5.42-44.4.38-53.6.76"/>
    <path class="st8" d="M1017.62,139.84c-4.16.72-9.24,3.96-25.02,9.62M1017.62,139.84c-6.58,2.46-13.36,5.62-25.02,9.62"/>
    <path class="st8" d="M1017.96,158.16c-4.32-3.02-9.48-3.52-25.36-8.7M1017.96,158.16c-6.72-2.54-13.58-4.38-25.36-8.7"/>
  </g>
  <g>
    <path class="st8" d="M921.6,150.17c8.68-.1,43.66-.5,52.44-.56M923.12,149.61c8.6,0,41.66,1.02,50.1,1.24"/>
    <path class="st8" d="M948.84,158.95c6.76-1.74,11.44-3.4,24.38-8.1M948.84,158.95c7.3-1.94,13.46-5.04,24.38-8.1"/>
    <path class="st8" d="M949.34,141.39c6.7,2.5,11.26,5.1,23.88,9.46M949.34,141.39c7.18,3.14,13.2,5.1,23.88,9.46"/>
  </g>
  <g>
    <path class="st8" d="M982.66,146.93c.5-9.86,1.66-48.38,2-58.08M981.38,145.83c.46-9.74,2.12-46.3,2.6-55.64"/>
    <path class="st8" d="M992.64,118.01c-2.34-5.44-3.94-11.36-8.66-27.82M992.64,118.01c-3.18-8.1-4.84-15.92-8.66-27.82"/>
    <path class="st8" d="M972.72,117.07c1.9-5.26,4.54-10.96,11.26-26.88M972.72,117.07c2.32-7.9,6.18-15.46,11.26-26.88"/>
  </g>
  <g>
    <path class="st8" d="M982.05,149.72c.48,10.08,2.16,50.1,2.62,60.3M980.89,148.7c.36,10.28,2.54,52.52,3.1,62.58"/>
    <path class="st8" d="M972.15,183.44c3.46,9.08,6.9,17.78,11.84,27.84M972.15,183.44c4.12,9.4,7.78,20.08,11.84,27.84"/>
    <path class="st8" d="M992.81,182.34c-2.92,9.44-5.84,18.5-8.82,28.94M992.81,182.34c-3.28,9.74-7.02,20.82-8.82,28.94"/>
  </g>
  <path class="st8" d="M996.48,488.96c12.06,1.92,27.2,10.7,35.68,21.16,8.46,10.48,15.4,28.08,15.12,41.68-.28,13.6-7.7,29.58-16.78,39.94-9.08,10.34-24.68,19.78-37.66,22.12-12.98,2.32-29-.76-40.18-8.14s-22.9-22.72-26.94-36.12c-4.02-13.42-2.06-31.62,2.74-44.3,4.8-12.7,12.96-26.46,26.04-31.88,13.08-5.44,43.04-1.26,52.46-.7,9.42.58,4.48,3.4,4.08,4.1M961.68,494.62c10.92-5.76,29.3-7.46,41.76-4.06,12.48,3.38,25.9,13.66,33.04,24.38,7.16,10.72,11.32,26.64,9.9,39.92s-9.3,30-18.4,39.74c-9.12,9.74-23.02,17.34-36.3,18.76-13.26,1.4-31.84-2.52-43.36-10.26-11.5-7.76-22.2-23.32-25.7-36.26-3.5-12.94-1.88-28.94,4.74-41.4,6.62-12.44,29.1-28.14,34.94-33.26,5.84-5.14.18,1.74.08,2.46"/>
  <g>
    <path class="st8" d="M1045.82,550.42c-9.18.22-46.14.36-55.12.4M1044.72,549.8c-8.88.36-43.2,1.8-52.12,2.06"/>
    <path class="st8" d="M1017.42,541.8c-7.5,2.06-17.38,6.8-24.82,10.06M1017.42,541.8c-5.76,1.98-11.26,4.1-24.82,10.06"/>
    <path class="st8" d="M1018.1,560.1c-7.72-4.02-17.8-5.4-25.5-8.24M1018.1,560.1c-5.84-2.04-11.5-3.94-25.5-8.24"/>
  </g>
  <g>
    <path class="st8" d="M921.65,549.97c8.5-.16,43.9.08,52.52.3M923.09,552.01c8.32-.12,41.5-.88,50.24-.8"/>
    <path class="st8" d="M949.25,560.21c7.4-2.92,15.38-6.98,24.08-9M949.25,560.21c7.32-3.12,15.46-5.52,24.08-9"/>
    <path class="st8" d="M949.11,542.63c7.5,3.08,15.52,5.02,24.22,8.58M949.11,542.63c7.32,2.42,15.52,5.56,24.22,8.58"/>
  </g>
  <g>
    <path class="st8" d="M982.77,547.6c.34-9.56.68-47.58.9-57.22M981.47,549.54c.76-9.32,3.96-47.88,4.24-57.68"/>
    <path class="st8" d="M994.03,519.8c-2.74-6.68-3.02-11.74-8.32-27.94M994.03,519.8c-1.8-7.26-3.74-14.86-8.32-27.94"/>
    <path class="st8" d="M974.13,518.6c1.24-6.44,4.94-11.26,11.58-26.74M974.13,518.6c3.44-6.88,6.74-14.18,11.58-26.74"/>
  </g>
  <g>
    <path class="st8" d="M981.06,551.25c.36,10.16,2.52,49.92,3,59.86M982.64,550.39c.18,10.38.28,51.66.34,61.92"/>
    <path class="st8" d="M972.5,583.93c3.28,8.06,5.68,16.58,10.48,28.38M972.5,583.93c3.28,6.92,5.04,14.52,10.48,28.38"/>
    <path class="st8" d="M993.2,583.83c-2.98,8-6.86,16.56-10.22,28.48M993.2,583.83c-1.88,6.96-5.28,14.58-10.22,28.48"/>
  </g>
  <path class="st6" d="M545.84,123.81c62.74.44,312.62,3,375.56,3.92M549.76,121.25c62.48.72,307.08,7.08,369.22,8.9"/>
  <path class="st6" d="M533.39,557.72c65.16.68,325.72,3.86,391.02,4.46M537.27,562.3c65.02,1.22,321.26,2.92,385.82,3.14"/>
  <path class="st6" d="M168.96,309.72c45.16-21.54,224.46-109.32,268.82-130.84M166.62,307.84c45.1-21.08,225.84-104.26,270.26-126.14"/>
  <path class="st6" d="M171.78,412.88c40.34,18.8,201.32,95.16,241.28,113.66M169.86,410.54c39.86,18.06,199.84,93.2,240.9,112.4"/>
  <path class="st6" d="M465.26,209.99c-2.08,45.36-8.18,224.8-9.76,270.42M469.26,208.55c-1.54,45.66-8.08,228.9-9.52,274.18"/>
  <path class="st6" d="M998.6,211.01c-.66,46.1-2.76,233.2-2.52,279.2M1001.8,215.47c.14,45.34-.96,225.92-1.32,271.5"/>
  <path class="st6" d="M500.83,215.51c-.72,45.04-3.82,221.9-4.62,266.84M504.21,214.43c-.68,45.46-7.38,225.86-8.84,270.32"/>
  <path class="st6" d="M551.56,167.26c63.16.86,312.82,7.62,375,8.46M549.68,171.8c63.18.02,313.72.1,375.92.44"/>
  <path class="st6" d="M971.51,214.42c-1.1,45.42-5.76,224.48-6.42,269.74M969.53,213.1c-1.6,45.76-6.06,227.2-6.42,273.1"/>
  <path class="st6" d="M924.32,529.15c-65.02-.82-323.26-1.52-388.16-1.5M921.32,533.35c-65.3-.56-321.28-1.4-385.82-2.72"/>
  <text class="st3" transform="translate(89.04 471.59)"><tspan x="0" y="0">R01</tspan></text>
  <text class="st3" transform="translate(448.61 60.23)"><tspan x="0" y="0">R02</tspan></text>
  <text class="st3" transform="translate(429.22 652.42)"><tspan x="0" y="0">R03</tspan></text>
  <text class="st3" transform="translate(945.63 69.04)"><tspan x="0" y="0">R04</tspan></text>
  <text class="st3" transform="translate(940.98 659.99)"><tspan x="0" y="0">R05</tspan></text>
  <path class="st4" d="M22.81,756.67c40,.12,200.06-.4,239.64-.16M19.99,761.19c39.92.74,201.96-.48,241.76-1.64"/>
  <path class="st4" d="M384.12,767.58c111.36.92,555.38,3.66,666.08,4.34M382.4,765.44c111.04.36,554.16,2.64,665.98,3.02"/>
  <text class="st2" transform="translate(25.39 740.33)"><tspan x="0" y="0">BGP AS 65001</tspan></text>
  <text class="st2" transform="translate(575.84 746.73)"><tspan x="0" y="0">BGP AS 65100</tspan></text>
  <path class="st8" d="M1357.18,93.08c12,3.62,23.94,17.92,30.94,29.86,7.02,11.94,13,28.48,11.08,41.78-1.94,13.3-12.14,29.18-22.66,38.04-10.52,8.84-26.9,15.5-40.44,15.08-13.54-.44-30.56-8.6-40.78-17.68-10.22-9.08-18.28-23.78-20.54-36.82-2.28-13.06.12-29.88,6.96-41.44,6.82-11.58,19.64-23.8,34.02-28,14.36-4.2,42.22.82,52.18,2.74,9.98,1.92,8.7,7.84,7.6,8.78M1338,89.64c13.36.1,30.66,9.44,40.9,18.04,10.26,8.6,19,20.9,20.6,33.54,1.6,12.66-3.22,30.52-11,42.34-7.78,11.82-23.22,24.12-35.68,28.56-12.46,4.44-27.38,3.06-39.1-1.94-11.72-4.98-24.5-16.62-31.26-28.02-6.74-11.38-11.68-27.2-9.26-40.34,2.4-13.12,12.54-29.9,23.72-38.4,11.18-8.48,36.52-11.06,43.36-12.54,6.86-1.5-1.42,3-2.22,3.58"/>
  <g>
    <path class="st8" d="M1397.24,152.14c-8.7.14-44.6,2-53.72,2.18M1396.3,151.08c-8.72.24-44.24.94-53.34,1.44"/>
    <path class="st8" d="M1367.8,142.48c-5.9,3.1-10.98,4.2-24.84,10.04M1367.8,142.48c-5.24,2.44-10.82,4.5-24.84,10.04"/>
    <path class="st8" d="M1368.46,160.8c-6.14-1.08-11.38-4.14-25.5-8.28M1368.46,160.8c-5.5-1.78-11.22-3.94-25.5-8.28"/>
  </g>
  <g>
    <path class="st8" d="M1274.49,153.49c8.38,0,41.78-.72,50.42-.5M1273.45,152.67c8.14.14,41.62,1.24,50.4,1.32"/>
    <path class="st8" d="M1299.51,162.23c9.24-3.52,17.02-4.94,24.34-8.24M1299.51,162.23c10.12-3.48,19.64-6.96,24.34-8.24"/>
    <path class="st8" d="M1299.91,144.67c9.08,2.92,16.7,7.98,23.94,9.32M1299.91,144.67c10,3.42,19.4,6.84,23.94,9.32"/>
  </g>
  <g>
    <path class="st8" d="M1333.51,150.32c.36-9.58,2.68-46.9,3.14-56.48M1335.33,152.3c.26-9.88.86-50.14.98-59.86"/>
    <path class="st8" d="M1345.89,119.96c-4.42-8.4-5.44-18.56-9.58-27.52M1345.89,119.96c-2.4-8.84-6.5-16.74-9.58-27.52"/>
    <path class="st8" d="M1325.97,119.68c2.62-8.26,8.64-18.32,10.34-27.24M1325.97,119.68c3.6-8.72,5.48-16.54,10.34-27.24"/>
  </g>
  <g>
    <path class="st8" d="M1334.05,154.71c.62,10.2,1.86,49.58,2.3,59.42M1333.25,154.29c.56,10.46,2.06,51.18,2.6,61.24"/>
    <path class="st8" d="M1324.27,187.59c4.38,8.36,6.08,16.16,11.58,27.94M1324.27,187.59c2.52,7.24,5.66,14.62,11.58,27.94"/>
    <path class="st8" d="M1344.93,186.69c-1.1,8.7-4.92,16.72-9.08,28.84M1344.93,186.69c-2.92,7.4-5.22,15.02-9.08,28.84"/>
  </g>
  <path class="st8" d="M1361.16,495.67c11.82,4.2,25.22,18.32,31,30.78,5.76,12.48,6.8,30.8,3.66,44.02-3.16,13.22-12.04,27.78-22.58,35.32s-27.44,11.04-40.66,9.96c-13.24-1.06-28.7-6.82-38.66-16.38-9.98-9.54-19.82-27.08-21.18-40.94s5.26-31.4,13.02-42.22c7.78-10.84,19.3-20.66,33.6-22.7,14.32-2.06,42.1,7.24,52.26,10.34,10.18,3.12,9.64,7.66,8.78,8.3M1309.26,496.51c11.56-6.42,30.1-7.82,42.54-4.16,12.44,3.66,24.56,15.18,32.16,26.12,7.6,10.94,13.5,26.24,13.42,39.58-.06,13.32-4.84,30.12-13.84,40.44-9,10.34-26.18,20.48-40.18,21.52-13.98,1.04-32.76-7.68-43.72-15.3-10.96-7.64-19.1-17.7-22.02-30.48-2.92-12.78-1.06-33.7,4.5-46.18,5.56-12.48,23.88-23.68,28.9-28.68,5-4.98.96-2.42,1.18-1.24"/>
  <g>
    <path class="st8" d="M1397.66,553.23c-8.88.14-44.38.96-53.62,1.28M1396.84,552.07c-9.02.26-44.44,2.72-53.2,3.4"/>
    <path class="st8" d="M1368.1,544.51c-9.4,5.22-18.82,6.94-24.46,10.96M1368.1,544.51c-6.96,3.5-13.72,6.64-24.46,10.96"/>
    <path class="st8" d="M1369.42,562.81c-9.86-1.46-19.78-6.38-25.78-7.34M1369.42,562.81c-7.26-1.58-14.38-3.52-25.78-7.34"/>
  </g>
  <g>
    <path class="st8" d="M1275.01,553.68c8.24.1,41.24.88,49.52,1.06M1274.15,555.62c8.48.32,43.58.36,52.36.4"/>
    <path class="st8" d="M1302.35,564.72c8.42-4.58,18.46-7.78,24.16-8.7M1302.35,564.72c6.66-1.96,13.08-4.48,24.16-8.7"/>
    <path class="st8" d="M1302.41,547.16c8.36,2.22,18.38,5.82,24.1,8.86M1302.41,547.16c6.64,2.94,13.04,5.34,24.1,8.86"/>
  </g>
  <g>
    <path class="st8" d="M1333.15,552.08c0-9.62,1.46-48.7,1.88-58.24M1334.67,551c.26-9.38,2.38-46.22,2.42-55.88"/>
    <path class="st8" d="M1346.13,522.82c-3.68-11.7-7.12-21.52-9.04-27.7M1346.13,522.82c-3.86-9.7-6.52-21.2-9.04-27.7"/>
    <path class="st8" d="M1326.21,522.16c3.94-11.36,8.14-20.92,10.88-27.04M1326.21,522.16c3.54-9.54,8.28-20.8,10.88-27.04"/>
  </g>
  <g>
    <path class="st8" d="M1332.42,554.71c.56,10.24,2.66,51.18,3.2,61.44M1334,553.65c.48,9.96.5,50.8.64,60.98"/>
    <path class="st8" d="M1324.1,586.27c1.92,5.82,5.56,11.94,10.54,28.36M1324.1,586.27c4.16,10.24,7.54,21.96,10.54,28.36"/>
    <path class="st8" d="M1344.78,586.13c-2.5,5.78-3.28,11.92-10.14,28.5M1344.78,586.13c-3.84,10.36-8.46,22.14-10.14,28.5"/>
  </g>
  <path class="st8" d="M1820.7,90.86c11.92-1.8,26.96,2.22,37.56,9.62,10.6,7.42,22.56,21.58,26.02,34.86,3.48,13.28.6,32.16-5.2,44.86-5.78,12.68-17.8,25.4-29.52,31.24-11.74,5.84-27.82,7.58-40.9,3.78-13.06-3.8-29.48-14.92-37.5-26.56-8-11.64-12.06-29.94-10.56-43.28,1.48-13.34,7.82-27.7,19.46-36.72,11.64-9.04,39.96-14.82,50.36-17.44,10.38-2.6,11.78.9,11.98,1.74M1821.32,93.24c11.78-1.88,27.3-.4,37.98,7.62,10.68,8.02,22.32,27.12,26.06,40.46,3.76,13.34,2.32,27.7-3.52,39.58-5.84,11.9-19.32,26.54-31.52,31.76-12.2,5.24-28.8,3.42-41.74-.38-12.92-3.8-28.4-10.84-35.82-22.4-7.42-11.54-10.64-33.28-8.68-46.9,1.96-13.62,11.32-26.4,20.44-34.82,9.12-8.42,27.84-13.14,34.3-15.7,6.48-2.58,3.72-.28,4.54.26"/>
  <g>
    <path class="st8" d="M1884.32,153.34c-9.02.28-45.32,1.6-54.18,1.56M1882.9,152.88c-8.66-.08-41.98.36-50.68.5"/>
    <path class="st8" d="M1857.26,143.86c-5.84,1.7-13.04,5.66-25.04,9.52M1857.26,143.86c-5.9,1.62-10.44,3.84-25.04,9.52"/>
    <path class="st8" d="M1857.52,162.18c-5.98-3.44-13.26-4.62-25.3-8.8M1857.52,162.18c-5.9-2.16-10.5-3.76-25.3-8.8"/>
  </g>
  <g>
    <path class="st8" d="M1766.21,156.52c7.56-1.12,38.9-6.1,46.37-6.35M1768.56,154.4c7.42,1.12,35.31-1.62,42.96-.75"/>
    <path class="st8" d="M1790.46,174.32c6.5-5.23,11.25-12.95,21.06-20.66M1790.46,174.32c6.45-6.35,13.09-12.07,21.06-20.66"/>
    <path class="st8" d="M1790.46,132.99c6.55,6.47,11.29,10.46,21.06,20.66M1790.46,132.99c6.41,6.22,13.04,13.32,21.06,20.66"/>
  </g>
  <g>
    <path class="st8" d="M1822.15,150.06c.3-9.84.66-47.54.74-57.18M1820.97,151.92c.7-9.72,3.38-47.8,4-57.6"/>
    <path class="st8" d="M1833.09,122.3c-3.32-7.38-3.74-14.24-8.12-27.98M1833.09,122.3c-1.64-6.54-3.52-14.5-8.12-27.98"/>
    <path class="st8" d="M1813.19,120.98c1.26-7.1,5.38-13.66,11.78-26.66M1813.19,120.98c3.26-6.2,6.3-13.84,11.78-26.66"/>
  </g>
  <g>
    <path class="st8" d="M1820.29,153.75c.2,10.16,1.7,49.76,2.26,59.78M1821.91,152.85c.5,10.36,2.38,51.42,2.54,61.78"/>
    <path class="st8" d="M1813.17,186.57c3.62,7.64,6.38,18.2,11.28,28.06M1813.17,186.57c3.72,7.12,6.3,15.02,11.28,28.06"/>
    <path class="st8" d="M1833.85,185.89c-3.1,7.78-7.04,18.58-9.4,28.74M1833.85,185.89c-2.08,7.36-5.3,15.46-9.4,28.74"/>
  </g>
  <path class="st8" d="M1814.52,493.5c12.36-1.14,27.26,4.7,37.06,12.74,9.78,8.04,19,22.14,21.68,35.52,2.66,13.36.7,32.54-5.68,44.7-6.38,12.18-20.18,23.88-32.62,28.3-12.42,4.44-29.76,3.02-41.94-1.66-12.2-4.68-24.54-15.3-31.24-26.42s-11.06-27.08-8.98-40.3c2.08-13.22,10.4-29.72,21.46-39.02,11.06-9.28,37.42-14.56,44.92-16.76,7.5-2.18.22,2.06.06,3.68M1804.58,492.44c11.96-3.14,28.42,3.8,39.86,10.02,11.44,6.24,23.62,15.04,28.78,27.36,5.14,12.32,6.98,33,2.14,46.54-4.82,13.54-19.78,27.62-31.16,34.68-11.36,7.06-24.7,10.16-37.06,7.68-12.36-2.48-27.76-12.34-37.12-22.6-9.36-10.26-18.1-25.76-19.04-38.96-.94-13.2,5.16-29.44,13.4-40.24,8.22-10.8,29.68-20.88,35.98-24.58,6.32-3.68,1.44,1.6,1.82,2.42"/>
  <g>
    <path class="st8" d="M1874.48,554.16c-8.66.48-44.22,2.34-53.02,2.48M1873.14,553.1c-8.66.22-43.62,1.46-52.26,1.9"/>
    <path class="st8" d="M1845.66,544.8c-5.26,2.68-9.28,4.96-24.78,10.2M1845.66,544.8c-5.66,1.74-9.94,3.68-24.78,10.2"/>
    <path class="st8" d="M1846.42,563.1c-5.36-.98-9.54-2.36-25.54-8.1M1846.42,563.1c-5.8-1.96-10.24-3.74-25.54-8.1"/>
  </g>
  <g>
    <path class="st8" d="M1769.13,555.97c5.9-.1,29.22-1.08,34.88-1.3M1768.07,555.29c5.82.04,29.74.22,35.44.24"/>
    <path class="st8" d="M1787.19,561.37c5.3-1.22,8.9-3.64,16.32-5.84M1787.19,561.37c3.48-1.42,6.94-2.52,16.32-5.84"/>
    <path class="st8" d="M1787.25,549.49c5.28,2.34,8.84,3.46,16.26,6.04M1787.25,549.49c3.42,1.06,6.86,2.42,16.26,6.04"/>
  </g>
  <g>
    <path class="st8" d="M1812.61,552.02c.18-9.98.88-48.64.88-58.22M1811.65,553.84c-.02-9.92.38-49.44.9-59.16"/>
    <path class="st8" d="M1821.75,522.34c-4.68-9.8-7.82-20.58-9.2-27.66M1821.75,522.34c-2.28-7.7-5.54-14.62-9.2-27.66"/>
    <path class="st8" d="M1801.83,521.78c2.26-9.66,6.06-20.26,10.72-27.1M1801.83,521.78c3.1-7.5,5.22-14.26,10.72-27.1"/>
  </g>
  <g>
    <path class="st8" d="M1810.89,554.67c.14,10.2,1.24,50.98,1.74,61.12M1809.49,556.53c.4,10.44,4.46,50.5,5.08,60.5"/>
    <path class="st8" d="M1801.89,589.57c3.12,8.66,8.7,20.36,12.68,27.46M1801.89,589.57c2.64,7.24,6.16,13.66,12.68,27.46"/>
    <path class="st8" d="M1822.51,587.85c-4.44,9.28-6.4,21.6-7.94,29.18M1822.51,587.85c-2.5,7.64-4.12,14.48-7.94,29.18"/>
  </g>
  <path class="st8" d="M2193.08,288.92c12.98.14,30.52,9.14,39.96,19.2,9.44,10.06,15.66,27.6,16.7,41.14,1.06,13.54-3.12,29.62-10.4,40.14-7.26,10.52-20.06,19.46-33.22,23-13.16,3.56-33.58,3.48-45.72-1.68-12.16-5.16-21.68-17.18-27.16-29.26-5.5-12.06-9.14-30.14-5.76-43.14,3.4-13,14.4-27.06,26.08-34.86,11.68-7.78,35.54-10.34,44-11.9,8.46-1.56,7.04,1.36,6.74,2.56M2203.68,292.9c13.26,1.5,28.38,10.54,35.92,21.1,7.54,10.54,10.44,28.44,9.28,42.22-1.16,13.78-7.24,30.72-16.26,40.44-9,9.72-24.82,16.26-37.76,17.86-12.92,1.62-28.8-.72-39.82-8.2-11.02-7.5-21.92-24.24-26.28-36.7-4.38-12.48-5.24-25.94.06-38.1,5.28-12.16,19.48-28.3,31.72-34.86,12.24-6.58,35.04-4.12,41.72-4.54,6.68-.42-1.6,1.22-1.64,2.02"/>
  <g>
    <path class="st8" d="M2248.7,351.82c-8.7.3-44.34,1.5-53.44,1.96M2247.46,353.92c-8.72.48-44.36,1.3-52.88,1.1"/>
    <path class="st8" d="M2219.72,345.74c-5.92,2.36-10.86,2.88-25.14,9.28M2219.72,345.74c-8.3,3.38-17.56,7.14-25.14,9.28"/>
    <path class="st8" d="M2219.8,364.06c-5.92-1.44-10.86-4.74-25.22-9.04M2219.8,364.06c-8.3-3.02-17.6-5.66-25.22-9.04"/>
  </g>
  <g>
    <path class="st8" d="M2126.23,352.95c8.4.26,41.76,1.22,50.22,1.34M2125.07,351.83c8.72,0,44.92.32,53.42.8"/>
    <path class="st8" d="M2154.11,360.73c7.4-3.58,16.14-5.54,24.38-8.1M2154.11,360.73c7.06-1.74,13.62-5.22,24.38-8.1"/>
    <path class="st8" d="M2154.61,343.15c7.2,2.02,15.78,5.62,23.88,9.48M2154.61,343.15c6.98,3.38,13.4,5.02,23.88,9.48"/>
  </g>
  <g>
    <path class="st8" d="M2185.05,351.62c.2-9.68,1.7-49.14,2.26-58.9M2186.63,350.94c-.02-9.46-.6-47.44-.34-56.88"/>
    <path class="st8" d="M2196.17,321.48c-2.5-9.52-6.62-17.1-9.88-27.42M2196.17,321.48c-3.78-9.32-6.18-17.14-9.88-27.42"/>
    <path class="st8" d="M2176.25,321.42c4.08-9.42,6.54-16.98,10.04-27.36M2176.25,321.42c2.62-9.4,6.64-17.2,10.04-27.36"/>
  </g>
  <g>
    <path class="st8" d="M2184.71,353.59c.72,10.02,3.26,50.5,3.74,60.78M2186.55,352.59c.72,9.62,1.4,49.8,1.46,59.98"/>
    <path class="st8" d="M2177.29,384.29c2.34,7.48,5.22,12.72,10.72,28.28M2177.29,384.29c4.34,11.82,9.12,22.32,10.72,28.28"/>
    <path class="st8" d="M2197.97,384.01c-2.3,7.52-4.06,12.82-9.96,28.56M2197.97,384.01c-3.92,11.86-7.42,22.46-9.96,28.56"/>
  </g>
  <path class="st6" d="M1398.98,149.72c60.8,1.1,302.2,5.56,362.24,5.84M1397,147.9c60.54.52,301.18,3.82,362.34,4.68"/>
  <path class="st6" d="M1401.91,554.81c57.26-.26,287.34-3.4,345.32-3.42M1399.01,553.99c57.84-.06,294.36.06,352.6-.46"/>
  <path class="st6" d="M1885.22,151.4c41.42,28.52,208.54,146.54,250.56,175.34M1888.58,155.68c41.16,28.86,204.22,139.18,245.6,167.62"/>
  <path class="st6" d="M1875.78,554.74c44.34-27.2,219.62-139.12,263.5-166.54M1873.16,553.46c44.38-26.72,221.1-134.8,265.32-162.68"/>
  <path class="st6" d="M1825.02,220.26c-1.3,45.02-5.96,222.92-7.48,268.1M1823.06,218.74c-1.58,45.44-4.8,227.42-6.2,272.26"/>
  <path class="st6" d="M1385.54,190.36c65.12,52.84,325.18,266.48,390.3,318.98M1383.84,187.84c64.72,52.12,325.18,265.18,390.44,318.4"/>
  <path class="st6" d="M1388,513.31c64.12-54.14,321.82-273.66,386.32-327.84M1385.42,512.37c63.7-53.82,322.76-270.02,387.6-324.74"/>
  <text class="st3" transform="translate(1296.96 72.89)"><tspan x="0" y="0">R06</tspan></text>
  <text class="st3" transform="translate(1292.31 663.83)"><tspan x="0" y="0">R07</tspan></text>
  <text class="st3" transform="translate(1788.69 76.42)"><tspan x="0" y="0">R08</tspan></text>
  <text class="st3" transform="translate(1772.83 670.37)"><tspan x="0" y="0">R09</tspan></text>
  <text class="st3" transform="translate(2147.2 465.28)"><tspan x="0" y="0">R10</tspan></text>
  <path class="st4" d="M1296.88,774.36c102.02.66,512.38,2.78,614.84,3.02M1300.76,772.36c101.48-.04,507.1.2,608.56,1.14"/>
  <text class="st2" transform="translate(1481.47 746.83)"><tspan x="0" y="0">BGP AS 65200</tspan></text>
  <path class="st4" d="M2045,782.75c39.78-.34,199.08-.04,238.8-.46M2048.86,780.19c39.56,0,194.34,4.92,233.16,5.2"/>
  <text class="st2" transform="translate(2048.82 766)"><tspan x="0" y="0">BGP AS 65002</tspan></text>
  <path class="st6" d="M1045.96,146.9c37.16.48,185.7,4.52,223.34,4.92M1042.94,151.1c37.88-.14,192.96-2.56,230.9-2.46"/>
  <path class="st6" d="M1047.69,551.86c37.46.68,188.58-.02,226.24.14M1051.21,550.84c37.22,1.22,184.34,3.18,221.2,3.98"/>
</svg>